<?xml version="1.0" encoding="utf-8"?>
<!-- Generator: Adobe Illustrator 17.0.0, SVG Export Plug-In . SVG Version: 6.00 Build 0)  -->
<!DOCTYPE svg PUBLIC "-//W3C//DTD SVG 1.1//EN" "http://www.w3.org/Graphics/SVG/1.1/DTD/svg11.dtd">
<svg version="1.1" id="Layer_1" xmlns="http://www.w3.org/2000/svg" xmlns:xlink="http://www.w3.org/1999/xlink" x="0px" y="0px"
	 width="30px" height="30px" viewBox="0 0 30 30" enable-background="new 0 0 30 30" xml:space="preserve">
<path fill="#262E34" d="M27.049,1.844H2.951c-0.433,0-0.784,0.352-0.784,0.784v19.581c0,0.433,0.352,0.784,0.784,0.784h13.233
	c0.433,0,0.784-0.352,0.784-0.784c0-0.434-0.352-0.786-0.784-0.786h-3.412v-1.582c0-0.432-0.352-0.783-0.784-0.783
	c-0.433,0-0.784,0.352-0.784,0.783v1.582H3.735v-9.511h7.469v3.305c0,0.433,0.352,0.784,0.784,0.784
	c0.432,0,0.784-0.351,0.784-0.784v-0.723h6.423c0.434,0,0.787-0.352,0.787-0.784s-0.353-0.784-0.787-0.784h-6.423V5.855
	c0-0.432-0.352-0.784-0.784-0.784c-0.433,0-0.784,0.352-0.784,0.784v4.488H3.735V3.412h22.53v9.514h-2.628v-1.584
	c0-0.433-0.352-0.784-0.784-0.784s-0.784,0.352-0.784,0.784v2.369c0,0.433,0.352,0.784,0.784,0.784h3.412v12.093h-4.779v-4.164
	c0-0.433-0.352-0.784-0.784-0.784s-0.784,0.352-0.784,0.784v4.948c0,0.433,0.352,0.784,0.784,0.784h6.348
	c0.433,0,0.784-0.352,0.784-0.784V2.628C27.833,2.196,27.482,1.844,27.049,1.844z"/>
</svg>
