<?xml version="1.0" encoding="utf-8"?>
<!-- Generator: Adobe Illustrator 17.0.0, SVG Export Plug-In . SVG Version: 6.00 Build 0)  -->
<!DOCTYPE svg PUBLIC "-//W3C//DTD SVG 1.1//EN" "http://www.w3.org/Graphics/SVG/1.1/DTD/svg11.dtd">
<svg version="1.1" id="Layer_1" xmlns="http://www.w3.org/2000/svg" xmlns:xlink="http://www.w3.org/1999/xlink" x="0px" y="0px"
	 width="30px" height="30px" viewBox="0 0 30 30" enable-background="new 0 0 30 30" xml:space="preserve">
<g>
	<path fill="#262E34" d="M16.654,9.575c0.185,0,0.362-0.073,0.487-0.198l1.103-1.103c0.13-0.13,0.201-0.304,0.201-0.488
		c0-0.185-0.072-0.358-0.202-0.488c-0.262-0.26-0.713-0.26-0.976,0l-1.103,1.102c-0.269,0.27-0.268,0.708,0.001,0.977
		C16.292,9.504,16.47,9.575,16.654,9.575z"/>
	<path fill="#262E34" d="M16.165,10.606l-1.102,1.102c-0.269,0.269-0.269,0.707,0.001,0.977c0.126,0.125,0.304,0.197,0.488,0.197
		c0.185,0,0.362-0.073,0.487-0.198l1.103-1.103c0.13-0.13,0.202-0.303,0.202-0.488s-0.072-0.358-0.202-0.488
		C16.879,10.344,16.426,10.344,16.165,10.606z"/>
	<path fill="#262E34" d="M26.575,14.363h-0.411V3.927c0-1.238-1.01-2.245-2.251-2.245c-0.6,0-1.164,0.234-1.588,0.658l-1.261,1.261
		l-0.062-0.061c-0.159-0.16-0.391-0.23-0.6-0.194l-2.756,0.452c-0.254,0.041-0.463,0.219-0.545,0.465
		c-0.082,0.246-0.02,0.513,0.16,0.697l3.305,3.404c0.175,0.185,0.421,0.26,0.696,0.184c0.246-0.072,0.43-0.273,0.479-0.526
		l0.551-2.756c0.045-0.227-0.025-0.46-0.189-0.624L22.04,4.578l1.262-1.261c0.162-0.163,0.381-0.253,0.617-0.253
		c0.476,0,0.864,0.388,0.864,0.864v10.434H3.426c-0.989,0-1.793,0.958-1.793,2.137c0,0.923,0.497,1.734,1.271,2.039l1.378,4.731
		c0.458,1.569,1.896,2.708,3.544,2.831L7.216,27.32c-0.169,0.34-0.031,0.756,0.312,0.927c0.331,0.163,0.762,0.015,0.924-0.311
		l0.911-1.822h11.272l0.912,1.825c0.116,0.23,0.359,0.379,0.619,0.379c0.107,0,0.21-0.023,0.31-0.072
		c0.164-0.082,0.287-0.224,0.345-0.398c0.058-0.176,0.044-0.362-0.038-0.526l-0.61-1.221c1.649-0.122,3.088-1.261,3.546-2.83
		l1.377-4.728c0.751-0.273,1.271-1.101,1.271-2.043C28.367,15.321,27.563,14.363,26.575,14.363z M25.633,18.637l-1.241,4.259
		c-0.319,1.095-1.354,1.859-2.515,1.859l-0.668-0.004c-0.112-0.023-0.262-0.017-0.295,0.004L9.088,24.751
		c-0.108-0.023-0.252-0.018-0.296,0.004H8.125c-1.162,0-2.196-0.765-2.516-1.859l-1.241-4.259H25.633z M26.986,16.499
		c0,0.286-0.188,0.527-0.412,0.527H3.426c-0.224,0-0.412-0.241-0.412-0.527c0-0.285,0.188-0.526,0.412-0.526h23.149
		C26.798,15.973,26.986,16.214,26.986,16.499z M20.864,5.356l-0.221,1.106l-1.472-1.516l1.103-0.18L20.864,5.356z"/>
	<path fill="#262E34" d="M13.347,10.677c0.185,0,0.362-0.072,0.487-0.197l1.103-1.103c0.269-0.269,0.269-0.707,0-0.976
		c-0.261-0.261-0.717-0.261-0.976,0l-1.103,1.103c-0.13,0.13-0.202,0.304-0.202,0.488c0,0.184,0.072,0.357,0.203,0.489
		C12.985,10.606,13.163,10.677,13.347,10.677z"/>
	<path fill="#262E34" d="M6.401,22.609c0.218,0.766,0.926,1.301,1.724,1.301c0.38,0,0.69-0.31,0.69-0.689
		c0-0.381-0.31-0.69-0.69-0.69c-0.182,0-0.345-0.123-0.396-0.298l-0.715-2.508c-0.101-0.357-0.502-0.574-0.854-0.475
		c-0.366,0.104-0.578,0.486-0.474,0.853L6.401,22.609z"/>
</g>
</svg>
