<?xml version="1.0" encoding="utf-8"?>
<!-- Generator: Adobe Illustrator 17.0.0, SVG Export Plug-In . SVG Version: 6.00 Build 0)  -->
<!DOCTYPE svg PUBLIC "-//W3C//DTD SVG 1.1//EN" "http://www.w3.org/Graphics/SVG/1.1/DTD/svg11.dtd">
<svg version="1.1" id="Layer_1" xmlns="http://www.w3.org/2000/svg" xmlns:xlink="http://www.w3.org/1999/xlink" x="0px" y="0px"
	 width="30px" height="30px" viewBox="0 0 30 30" enable-background="new 0 0 30 30" xml:space="preserve">
<g>
	<path fill="#262E34" d="M15,9.582c2.476,0,4.489,2.014,4.489,4.49c0,0.422,0.343,0.766,0.766,0.766
		c0.422,0,0.765-0.343,0.765-0.766c0-3.319-2.701-6.02-6.02-6.02c-0.422,0-0.766,0.343-0.766,0.765
		C14.234,9.239,14.578,9.582,15,9.582z"/>
	<path fill="#262E34" d="M26.96,12.491h-1.383c-0.422,0-0.765,0.343-0.765,0.765c0,0.422,0.343,0.766,0.765,0.766h1.383
		c0.422,0,0.766-0.343,0.766-0.766C27.726,12.833,27.382,12.491,26.96,12.491z"/>
	<path fill="#262E34" d="M7.698,6.714c0.205,0,0.402-0.08,0.541-0.219c0.145-0.145,0.224-0.337,0.224-0.542s-0.08-0.397-0.224-0.541
		L7.084,4.258c-0.287-0.288-0.79-0.292-1.083,0c-0.298,0.298-0.298,0.784,0,1.083l1.156,1.155C7.296,6.635,7.493,6.714,7.698,6.714z
		"/>
	<path fill="#262E34" d="M15,5.2c-4.717,0-8.555,3.837-8.555,8.555c0,3.325,1.852,6.27,4.837,7.706v1.021
		c0,0.449,0.152,0.885,0.455,1.265v3.918c0,0.995,0.81,1.805,1.804,1.805h2.916c0.995,0,1.804-0.81,1.804-1.805V23.75
		c0.294-0.356,0.455-0.805,0.455-1.268v-1.021c2.986-1.437,4.837-4.381,4.837-7.706C23.554,9.038,19.717,5.2,15,5.2z M13.269,26.973
		h1.935c0.422,0,0.765-0.344,0.765-0.766s-0.343-0.765-0.765-0.765h-1.935v-0.966c0.002,0,0.005,0,0.007,0h3.448
		c0.002,0,0.005,0,0.007,0v3.188c0,0.146-0.128,0.273-0.273,0.273h-2.916c-0.146,0-0.273-0.128-0.273-0.273V26.973z M12.338,20.256
		c-2.65-1.086-4.362-3.638-4.362-6.501c0-3.873,3.151-7.023,7.024-7.023c3.873,0,7.023,3.151,7.023,7.023
		c0,2.863-1.712,5.415-4.362,6.501c-0.289,0.118-0.475,0.396-0.475,0.708v1.519c0,0.255-0.208,0.463-0.463,0.463h-3.448
		c-0.255,0-0.462-0.208-0.462-0.463v-1.519C12.813,20.651,12.627,20.373,12.338,20.256z"/>
	<path fill="#262E34" d="M4.423,12.491H3.04c-0.422,0-0.765,0.343-0.765,0.765c0,0.422,0.343,0.766,0.765,0.766h1.383
		c0.422,0,0.765-0.343,0.765-0.766C5.188,12.833,4.845,12.491,4.423,12.491z"/>
	<path fill="#262E34" d="M22.916,4.258L21.76,5.413c-0.145,0.145-0.224,0.336-0.224,0.541c0,0.204,0.08,0.396,0.224,0.542
		c0.139,0.139,0.336,0.219,0.541,0.219c0.205,0,0.402-0.08,0.542-0.219l1.156-1.156c0.144-0.145,0.224-0.337,0.224-0.541
		c0-0.205-0.08-0.396-0.224-0.541C23.708,3.968,23.204,3.969,22.916,4.258z"/>
	<path fill="#262E34" d="M15,3.797c0.422,0,0.765-0.343,0.765-0.765V1.296c0-0.422-0.343-0.766-0.765-0.766
		c-0.422,0-0.766,0.343-0.766,0.766v1.736C14.234,3.454,14.578,3.797,15,3.797z"/>
</g>
</svg>
