<?xml version="1.0" encoding="utf-8"?>
<!-- Generator: Adobe Illustrator 17.0.0, SVG Export Plug-In . SVG Version: 6.00 Build 0)  -->
<!DOCTYPE svg PUBLIC "-//W3C//DTD SVG 1.1//EN" "http://www.w3.org/Graphics/SVG/1.1/DTD/svg11.dtd">
<svg version="1.1" id="Layer_1" xmlns="http://www.w3.org/2000/svg" xmlns:xlink="http://www.w3.org/1999/xlink" x="0px" y="0px"
	 width="30px" height="30px" viewBox="0 0 30 30" enable-background="new 0 0 30 30" xml:space="preserve">
<g>
	<circle fill="#262E34" cx="22.405" cy="4.104" r="0.779"/>
	<path fill="#262E34" d="M20.29,3.325H6.537c-0.429,0-0.779,0.35-0.779,0.779s0.35,0.779,0.779,0.779H20.29
		c0.429,0,0.779-0.35,0.779-0.779S20.719,3.325,20.29,3.325z"/>
	<path fill="#262E34" d="M25.579,4.383H25.3V3.046c0-1.013-0.824-1.837-1.837-1.837H5.479c-1.013,0-1.837,0.824-1.837,1.837v1.336
		H3.364c-0.43,0-0.779,0.35-0.779,0.779c0,0.429,0.35,0.779,0.779,0.779h0.279v1.496c0,1.013,0.824,1.836,1.837,1.836h17.983
		c1.013,0,1.837-0.824,1.837-1.836V5.941h0.279c0.154,0,0.279,0.125,0.279,0.279v3.482c0,0.139-0.1,0.255-0.254,0.279l-10.362,1.838
		c-0.898,0.142-1.55,0.905-1.55,1.814v0.429h-1.337c-0.491,0-0.952,0.191-1.299,0.538s-0.538,0.808-0.538,1.299
		c0,0.893,0.634,1.639,1.485,1.803l-0.925,7.206c-0.021,0.152-0.031,0.308-0.031,0.459c0,1.888,1.536,3.424,3.423,3.424
		s3.424-1.536,3.424-3.424c0-0.151-0.011-0.307-0.031-0.459l-0.925-7.206c0.356-0.069,0.686-0.243,0.947-0.504
		c0.347-0.347,0.538-0.809,0.538-1.299c0-1.013-0.824-1.837-1.837-1.837H15.25v-0.429c0-0.139,0.1-0.255,0.254-0.279l10.362-1.838
		c0.898-0.142,1.55-0.905,1.55-1.814V6.219C27.416,5.207,26.591,4.383,25.579,4.383z M23.742,3.046v4.39
		c0,0.154-0.125,0.279-0.279,0.279H5.479C5.326,7.715,5.2,7.59,5.2,7.436v-4.39c0-0.154,0.125-0.279,0.279-0.279h17.983
		C23.617,2.767,23.742,2.892,23.742,3.046z M12.617,25.15l0.952-7.414h1.804l0.947,7.377c0.012,0.084,0.017,0.17,0.017,0.254
		c0,1.028-0.837,1.865-1.866,1.865s-1.866-0.837-1.866-1.865C12.605,25.301,12.609,25.234,12.617,25.15z M16.785,16.096
		c-0.053,0.052-0.123,0.081-0.198,0.081h-4.231c-0.154,0-0.279-0.125-0.279-0.278c0-0.074,0.029-0.145,0.082-0.197
		c0.053-0.053,0.123-0.082,0.197-0.082h4.231c0.154,0,0.279,0.125,0.279,0.279C16.866,15.973,16.836,16.044,16.785,16.096z"/>
	<circle fill="#262E34" cx="14.471" cy="25.896" r="0.779"/>
</g>
</svg>
