<?xml version="1.0" encoding="utf-8"?>
<!-- Generator: Adobe Illustrator 17.0.0, SVG Export Plug-In . SVG Version: 6.00 Build 0)  -->
<!DOCTYPE svg PUBLIC "-//W3C//DTD SVG 1.1//EN" "http://www.w3.org/Graphics/SVG/1.1/DTD/svg11.dtd">
<svg version="1.1" id="Layer_1" xmlns="http://www.w3.org/2000/svg" xmlns:xlink="http://www.w3.org/1999/xlink" x="0px" y="0px"
	 width="30px" height="30px" viewBox="0 0 30 30" enable-background="new 0 0 30 30" xml:space="preserve">
<path fill="#262E34" d="M28.151,7.365L15.21,0.893c-0.131-0.065-0.293-0.064-0.42,0L1.847,7.365
	C1.687,7.446,1.588,7.608,1.588,7.786v14.278c0,0.171,0.093,0.329,0.24,0.411l0.757,0.427c0.145,0.08,0.331,0.077,0.468-0.005
	c0.145-0.085,0.234-0.24,0.234-0.407V9.705l10.485,5.951v12.603c0,0.168,0.091,0.324,0.239,0.41l0.753,0.427
	c0.067,0.039,0.145,0.06,0.225,0.06c0.083,0,0.168-0.023,0.248-0.068c0.143-0.083,0.234-0.246,0.234-0.415V15.405l12.7-7.208
	c0.154-0.086,0.246-0.25,0.24-0.422C28.408,7.6,28.308,7.443,28.151,7.365z M25.33,7.854l-10.883,6.187L4.055,8.224l10.943-5.536
	L25.33,7.854z"/>
</svg>
