<?xml version="1.0" encoding="utf-8"?>
<!-- Generator: Adobe Illustrator 17.0.0, SVG Export Plug-In . SVG Version: 6.00 Build 0)  -->
<!DOCTYPE svg PUBLIC "-//W3C//DTD SVG 1.1//EN" "http://www.w3.org/Graphics/SVG/1.1/DTD/svg11.dtd">
<svg version="1.1" id="Layer_1" xmlns="http://www.w3.org/2000/svg" xmlns:xlink="http://www.w3.org/1999/xlink" x="0px" y="0px"
	 width="30px" height="30px" viewBox="0 0 30 30" enable-background="new 0 0 30 30" xml:space="preserve">
<path fill="#262E34" d="M27.506,21.389l-11.53-6.562l0.019-14.605c0-0.174-0.094-0.333-0.24-0.412
	c-0.148-0.084-0.343-0.078-0.482,0.012L2.493,7.868C2.356,7.953,2.271,8.106,2.271,8.267L2.249,22.715
	c0,0.17,0.092,0.327,0.238,0.409l12.406,7.062c0.071,0.041,0.152,0.063,0.236,0.063s0.167-0.022,0.243-0.067l0.744-0.446
	c0.143-0.087,0.229-0.244,0.228-0.407c0-0.167-0.091-0.323-0.237-0.406L4.995,22.597l10.359-6.17l10.951,6.233
	c0.071,0.041,0.152,0.063,0.234,0.063c0.085,0,0.169-0.023,0.241-0.066l0.747-0.444c0.14-0.083,0.225-0.241,0.223-0.414
	C27.749,21.632,27.652,21.471,27.506,21.389z M14.291,2.498l-0.007,12.543L4.045,21.223L4.047,8.985L14.291,2.498z"/>
</svg>
