<?xml version="1.0" encoding="utf-8"?>
<!-- Generator: Adobe Illustrator 17.0.0, SVG Export Plug-In . SVG Version: 6.00 Build 0)  -->
<!DOCTYPE svg PUBLIC "-//W3C//DTD SVG 1.1//EN" "http://www.w3.org/Graphics/SVG/1.1/DTD/svg11.dtd">
<svg version="1.1" id="Layer_1" xmlns="http://www.w3.org/2000/svg" xmlns:xlink="http://www.w3.org/1999/xlink" x="0px" y="0px"
	 width="30px" height="30px" viewBox="0 0 30 30" enable-background="new 0 0 30 30" xml:space="preserve">
<path fill="#262E34" d="M28.173,21.804l-12.701-7.208V1.314c0-0.167-0.09-0.324-0.234-0.407c-0.145-0.085-0.333-0.083-0.47-0.002
	l-0.757,0.429c-0.146,0.084-0.238,0.241-0.238,0.41v12.602l-10.486,5.95V7.511c0-0.166-0.089-0.321-0.233-0.407
	C2.913,7.02,2.728,7.019,2.583,7.1L1.827,7.526C1.679,7.611,1.587,7.768,1.587,7.937v14.278c0,0.179,0.1,0.34,0.262,0.422
	l12.939,6.47c0.065,0.032,0.139,0.05,0.212,0.05c0.074,0,0.148-0.018,0.21-0.05l12.943-6.471c0.155-0.078,0.255-0.235,0.259-0.41
	C28.416,22.053,28.326,21.892,28.173,21.804z M25.331,22.148l-10.332,5.165L4.055,21.778l10.393-5.817L25.331,22.148z"/>
</svg>
