<?xml version="1.0" encoding="utf-8"?>
<!-- Generator: Adobe Illustrator 17.0.0, SVG Export Plug-In . SVG Version: 6.00 Build 0)  -->
<!DOCTYPE svg PUBLIC "-//W3C//DTD SVG 1.1//EN" "http://www.w3.org/Graphics/SVG/1.1/DTD/svg11.dtd">
<svg version="1.1" id="Layer_1" xmlns="http://www.w3.org/2000/svg" xmlns:xlink="http://www.w3.org/1999/xlink" x="0px" y="0px"
	 width="30px" height="30px" viewBox="0 0 30 30" enable-background="new 0 0 30 30" xml:space="preserve">
<g>
	<g>
		<path fill="#262E34" d="M22.714,1.374H7.286c-0.318,0-0.575,0.258-0.575,0.575v26.1c0,0.318,0.258,0.575,0.575,0.575h15.428
			c0.318,0,0.575-0.258,0.575-0.575V1.95C23.289,1.632,23.032,1.374,22.714,1.374z M22.138,27.474H7.861V2.525h14.277V27.474z"/>
		<path fill="#262E34" d="M22.714,28.876H7.286c-0.455,0-0.825-0.371-0.825-0.826v-26.1c0-0.455,0.37-0.825,0.825-0.825h15.428
			c0.455,0,0.825,0.37,0.825,0.825v26.1C23.539,28.505,23.169,28.876,22.714,28.876z M7.286,1.624c-0.179,0-0.325,0.146-0.325,0.325
			v26.1c0,0.18,0.146,0.326,0.325,0.326h15.428c0.179,0,0.325-0.146,0.325-0.326v-26.1c0-0.179-0.146-0.325-0.325-0.325H7.286z
			 M22.388,27.724H7.612V2.275h14.777V27.724z M8.112,27.224h13.777V2.775H8.112V27.224z"/>
	</g>
	<g>
		<path fill="#262E34" d="M9.879,15.491h3.798c0.318,0,0.575-0.258,0.575-0.575V4.597c0-0.318-0.258-0.575-0.575-0.575H9.879
			c-0.318,0-0.575,0.258-0.575,0.575v10.319C9.303,15.234,9.561,15.491,9.879,15.491z M10.454,5.172h2.647v9.168h-2.647V5.172z"/>
		<path fill="#262E34" d="M13.677,15.741H9.879c-0.455,0-0.826-0.37-0.826-0.825V4.597c0-0.455,0.371-0.826,0.826-0.826h3.798
			c0.455,0,0.825,0.371,0.825,0.826v10.319C14.502,15.371,14.132,15.741,13.677,15.741z M9.879,4.271
			c-0.18,0-0.326,0.146-0.326,0.326v10.319c0,0.179,0.146,0.325,0.326,0.325h3.798c0.179,0,0.325-0.146,0.325-0.325V4.597
			c0-0.18-0.146-0.326-0.325-0.326H9.879z M13.351,14.59h-3.147V4.922h3.147V14.59z M10.704,14.09h2.147V5.422h-2.147V14.09z"/>
	</g>
	<g>
		<path fill="#262E34" d="M16.324,15.491h3.798c0.318,0,0.575-0.258,0.575-0.575V4.597c0-0.318-0.258-0.575-0.575-0.575h-3.798
			c-0.318,0-0.575,0.258-0.575,0.575v10.319C15.748,15.234,16.006,15.491,16.324,15.491z M16.899,5.172h2.647v9.168h-2.647V5.172z"
			/>
		<path fill="#262E34" d="M20.121,15.741h-3.798c-0.455,0-0.825-0.37-0.825-0.825V4.597c0-0.455,0.37-0.826,0.825-0.826h3.798
			c0.455,0,0.826,0.371,0.826,0.826v10.319C20.947,15.371,20.576,15.741,20.121,15.741z M16.323,4.271
			c-0.179,0-0.325,0.146-0.325,0.326v10.319c0,0.179,0.146,0.325,0.325,0.325h3.798c0.18,0,0.326-0.146,0.326-0.325V4.597
			c0-0.18-0.146-0.326-0.326-0.326H16.323z M19.796,14.59h-3.147V4.922h3.147V14.59z M17.149,14.09h2.147V5.422h-2.147V14.09z"/>
	</g>
	<g>
		<path fill="#262E34" d="M10.368,19.48c0.788,0,1.428-0.641,1.428-1.428c0-0.788-0.641-1.428-1.428-1.428
			c-0.788,0-1.428,0.641-1.428,1.428C8.939,18.84,9.58,19.48,10.368,19.48z M10.368,17.55c0.277,0,0.502,0.225,0.502,0.502
			c0,0.277-0.225,0.502-0.502,0.502c-0.277,0-0.502-0.225-0.502-0.502C9.866,17.775,10.091,17.55,10.368,17.55z"/>
		<path fill="#262E34" d="M10.367,19.73c-0.925,0-1.678-0.753-1.678-1.679c0-0.925,0.753-1.678,1.678-1.678
			c0.926,0,1.679,0.753,1.679,1.678C12.046,18.977,11.293,19.73,10.367,19.73z M10.367,16.874c-0.65,0-1.178,0.528-1.178,1.178
			c0,0.65,0.528,1.179,1.178,1.179s1.179-0.528,1.179-1.179C11.546,17.402,11.017,16.874,10.367,16.874z M10.367,18.803
			c-0.415,0-0.752-0.337-0.752-0.752S9.953,17.3,10.367,17.3c0.415,0,0.752,0.337,0.752,0.752S10.782,18.803,10.367,18.803z
			 M10.367,17.8c-0.139,0-0.252,0.113-0.252,0.252s0.113,0.252,0.252,0.252s0.252-0.113,0.252-0.252S10.507,17.8,10.367,17.8z"/>
	</g>
	<g>
		<path fill="#262E34" d="M20.121,21.476c-0.318,0-0.575,0.258-0.575,0.575v3.757c0,0.318,0.258,0.575,0.575,0.575
			c0.318,0,0.575-0.258,0.575-0.575v-3.757C20.697,21.733,20.439,21.476,20.121,21.476z"/>
		<path fill="#262E34" d="M20.121,26.634c-0.455,0-0.825-0.37-0.825-0.825v-3.757c0-0.455,0.37-0.826,0.825-0.826
			s0.826,0.371,0.826,0.826v3.757C20.947,26.263,20.576,26.634,20.121,26.634z M20.121,21.725c-0.179,0-0.325,0.146-0.325,0.326
			v3.757c0,0.18,0.146,0.325,0.325,0.325c0.18,0,0.326-0.146,0.326-0.325v-3.757C20.447,21.872,20.301,21.725,20.121,21.725z"/>
	</g>
	<g>
		<path fill="#262E34" d="M20.121,19.404c-0.318,0-0.575,0.258-0.575,0.575v0.288c0,0.318,0.258,0.575,0.575,0.575
			c0.318,0,0.575-0.258,0.575-0.575V19.98C20.697,19.662,20.439,19.404,20.121,19.404z"/>
		<path fill="#262E34" d="M20.121,21.093c-0.455,0-0.825-0.37-0.825-0.825v-0.288c0-0.455,0.37-0.825,0.825-0.825
			s0.826,0.37,0.826,0.825v0.288C20.947,20.722,20.576,21.093,20.121,21.093z M20.121,19.654c-0.179,0-0.325,0.146-0.325,0.325
			v0.288c0,0.18,0.146,0.325,0.325,0.325c0.18,0,0.326-0.146,0.326-0.325v-0.288C20.447,19.8,20.301,19.654,20.121,19.654z"/>
	</g>
</g>
</svg>
