<?xml version="1.0" encoding="utf-8"?>
<!-- Generator: Adobe Illustrator 17.0.0, SVG Export Plug-In . SVG Version: 6.00 Build 0)  -->
<!DOCTYPE svg PUBLIC "-//W3C//DTD SVG 1.1//EN" "http://www.w3.org/Graphics/SVG/1.1/DTD/svg11.dtd">
<svg version="1.1" id="Layer_1" xmlns="http://www.w3.org/2000/svg" xmlns:xlink="http://www.w3.org/1999/xlink" x="0px" y="0px"
	 width="84px" height="84px" viewBox="0 0 84 84" enable-background="new 0 0 84 84" xml:space="preserve">
<rect fill="#262E34" width="84" height="84"/>
<path fill="#FFFFFF" d="M60.608,24.712c-0.83-2.645-2.997-4.287-5.656-4.287H29.049c-2.659,0-4.826,1.643-5.656,4.287
	c-0.619,1.971-0.352,4.185,0.715,5.922c0.883,1.438,2.212,2.371,3.741,2.626l0.517,0.086v2.065c0,1.387,0.88,2.631,2.189,3.094
	l0.411,0.146v18.4l-0.411,0.146c-1.31,0.463-2.189,1.707-2.189,3.094v2.601c0,0.376,0.306,0.683,0.682,0.683h26.008
	c0.376,0,0.682-0.307,0.682-0.683v-2.601c0-1.387-0.88-2.63-2.189-3.094l-0.412-0.146v-18.4l0.412-0.146
	c1.31-0.464,2.189-1.707,2.189-3.094v-2.074l0.506-0.094c1.508-0.28,2.815-1.225,3.68-2.66
	C60.964,28.854,61.219,26.66,60.608,24.712z M54.374,60.292v1.919H29.731v-1.919c0-1.059,0.86-1.919,1.918-1.919h20.807
	C53.514,58.373,54.374,59.233,54.374,60.292z M47.254,42.531c-0.376,0-0.682,0.307-0.682,0.683V57.01h-3.837V43.214
	c0-0.376-0.306-0.683-0.682-0.683s-0.682,0.307-0.682,0.683V57.01h-3.837V43.214c0-0.376-0.306-0.683-0.682-0.683
	s-0.682,0.307-0.682,0.683V57.01h-3.837V38.694h19.442V57.01h-3.837V43.214C47.936,42.838,47.63,42.531,47.254,42.531z
	 M54.374,35.411c0,1.059-0.86,1.919-1.918,1.919H31.649c-1.058,0-1.918-0.86-1.918-1.919v-1.919h24.644V35.411z M32.284,32.128
	l0.718-0.983c0.511-0.698,0.82-1.506,0.87-2.275l0.038-0.578h16.18l0.038,0.578c0.05,0.769,0.358,1.577,0.868,2.275l0.718,0.983
	H32.284z M58.51,30.255c-0.812,1.104-1.963,1.713-3.242,1.713c-1.737,0-3.12-1.194-3.589-2.373
	c-0.348-0.875-0.206-1.727,0.379-2.278c0.298-0.282,0.813-0.465,1.31-0.465c0.18,0,0.353,0.024,0.516,0.073
	c0.455,0.136,0.743,0.452,0.858,0.94c0.085,0.359,0.438,0.593,0.82,0.508c0.366-0.087,0.594-0.455,0.508-0.821
	c-0.226-0.955-0.879-1.66-1.794-1.935c-0.283-0.084-0.587-0.127-0.903-0.127c-0.855,0-1.697,0.313-2.251,0.835
	c-0.12,0.114-0.233,0.237-0.334,0.365l-0.186,0.236H33.398l-0.186-0.235c-0.101-0.129-0.213-0.252-0.334-0.366
	c-0.554-0.523-1.386-0.836-2.226-0.836c-0.524,0-2.271,0.149-2.722,2.063c-0.042,0.179-0.012,0.361,0.084,0.516
	c0.096,0.155,0.246,0.264,0.423,0.306c0.05,0.012,0.104,0.018,0.157,0.018c0.317,0,0.59-0.217,0.663-0.525
	c0.115-0.488,0.403-0.805,0.858-0.94c0.6-0.179,1.417,0.006,1.826,0.392c0.583,0.552,0.725,1.401,0.377,2.275
	c-0.469,1.181-1.853,2.376-3.588,2.376c-1.277,0-2.425-0.604-3.231-1.703c-1.031-1.403-1.348-3.423-0.807-5.145
	c0.654-2.086,2.282-3.331,4.354-3.331h25.903c2.072,0,3.7,1.245,4.354,3.331C59.856,26.869,59.551,28.837,58.51,30.255z"/>
</svg>
