<?xml version="1.0" encoding="utf-8"?>
<!-- Generator: Adobe Illustrator 17.0.0, SVG Export Plug-In . SVG Version: 6.00 Build 0)  -->
<!DOCTYPE svg PUBLIC "-//W3C//DTD SVG 1.1//EN" "http://www.w3.org/Graphics/SVG/1.1/DTD/svg11.dtd">
<svg version="1.1" id="Layer_1" xmlns="http://www.w3.org/2000/svg" xmlns:xlink="http://www.w3.org/1999/xlink" x="0px" y="0px"
	 width="84px" height="84px" viewBox="0 0 84 84" enable-background="new 0 0 84 84" xml:space="preserve">
<rect fill="#262E34" width="84" height="84"/>
<g>
	<rect x="41.364" y="26.142" fill="#FFFFFF" width="1.272" height="1.272"/>
	<path fill="#FFFFFF" d="M48.217,46.438v-8.876h5.48v-11.42h-8.984v1.272h7.712v8.876H33.909v-8.876h5.429v-1.272H17.263v31.716
		h49.473v-11.42H48.217z M46.945,37.562v8.876H27.922v-8.876H46.945z M18.535,27.415h14.102v8.876H20.206v1.271h6.444v8.876h-8.114
		V27.415z M33.575,56.585h-15.04v-8.876h15.04V56.585z M54.556,56.585H34.848v-8.876h19.708V56.585z M65.465,56.585h-9.637v-8.876
		h9.637V56.585z"/>
</g>
</svg>
