<?xml version="1.0" encoding="utf-8"?>
<!-- Generator: Adobe Illustrator 17.0.0, SVG Export Plug-In . SVG Version: 6.00 Build 0)  -->
<!DOCTYPE svg PUBLIC "-//W3C//DTD SVG 1.1//EN" "http://www.w3.org/Graphics/SVG/1.1/DTD/svg11.dtd">
<svg version="1.1" id="Layer_1" xmlns="http://www.w3.org/2000/svg" xmlns:xlink="http://www.w3.org/1999/xlink" x="0px" y="0px"
	 width="16px" height="16px" viewBox="0 0 16 16" enable-background="new 0 0 16 16" xml:space="preserve">
<g>
	<path fill="#B8E0F2" d="M8,8.388c1.625,0,2.942-1.542,2.942-3.444C10.942,2.306,9.625,1.5,8,1.5c-1.625,0-2.942,0.806-2.942,3.444
		C5.058,6.846,6.375,8.388,8,8.388z"/>
	<path fill="#B8E0F2" d="M14.497,13.457l-1.484-3.344c-0.068-0.153-0.187-0.28-0.336-0.357l-2.304-1.199
		c-0.051-0.026-0.112-0.021-0.158,0.013C9.564,9.062,8.798,9.323,8,9.323c-0.798,0-1.564-0.26-2.215-0.753
		C5.739,8.535,5.677,8.53,5.626,8.556L3.323,9.755C3.174,9.833,3.055,9.96,2.987,10.113l-1.484,3.344
		c-0.102,0.23-0.081,0.494,0.056,0.706S1.929,14.5,2.181,14.5h11.638c0.252,0,0.485-0.126,0.622-0.338
		C14.579,13.951,14.6,13.687,14.497,13.457z"/>
</g>
</svg>
