<?xml version="1.0" encoding="utf-8"?>
<!-- Generator: Adobe Illustrator 17.0.0, SVG Export Plug-In . SVG Version: 6.00 Build 0)  -->
<!DOCTYPE svg PUBLIC "-//W3C//DTD SVG 1.1//EN" "http://www.w3.org/Graphics/SVG/1.1/DTD/svg11.dtd">
<svg version="1.1" id="Layer_1" xmlns="http://www.w3.org/2000/svg" xmlns:xlink="http://www.w3.org/1999/xlink" x="0px" y="0px"
	 width="16px" height="16px" viewBox="0 0 16 16" enable-background="new 0 0 16 16" xml:space="preserve">
<path fill="#B8E0F2" d="M13.737,11.487l-1.855-1.856c-0.37-0.368-0.981-0.357-1.363,0.026l-0.935,0.935
	c-0.059-0.032-0.12-0.066-0.184-0.102C8.808,10.162,8.001,9.714,7.15,8.864C6.298,8.011,5.849,7.202,5.522,6.611
	c-0.035-0.062-0.068-0.122-0.101-0.18l0.627-0.626l0.309-0.309c0.383-0.383,0.394-0.995,0.025-1.363L4.526,2.277
	c-0.368-0.369-0.98-0.358-1.364,0.026L2.64,2.828l0.013,0.014c-0.175,0.224-0.321,0.482-0.43,0.76
	C2.123,3.867,2.06,4.12,2.032,4.373c-0.246,2.031,0.683,3.887,3.201,6.405c3.482,3.48,6.287,3.218,6.409,3.205
	c0.263-0.031,0.516-0.094,0.773-0.194c0.276-0.108,0.534-0.254,0.757-0.429l0.011,0.01l0.531-0.519
	C14.094,12.468,14.105,11.857,13.737,11.487L13.737,11.487z M13.737,11.487"/>
</svg>
