<?xml version="1.0" encoding="utf-8"?>
<!-- Generator: Adobe Illustrator 17.0.0, SVG Export Plug-In . SVG Version: 6.00 Build 0)  -->
<!DOCTYPE svg PUBLIC "-//W3C//DTD SVG 1.1//EN" "http://www.w3.org/Graphics/SVG/1.1/DTD/svg11.dtd">
<svg version="1.1" id="Layer_1" xmlns="http://www.w3.org/2000/svg" xmlns:xlink="http://www.w3.org/1999/xlink" x="0px" y="0px"
	 width="84px" height="84px" viewBox="0 0 84 84" enable-background="new 0 0 84 84" xml:space="preserve">
<rect fill="#262E34" width="84" height="84"/>
<path fill="#FFFFFF" d="M44.276,54.489c0,0.33-0.162,0.643-0.434,0.836c-0.224,0.159-0.358,0.416-0.362,0.691
	c-0.011,0.806-0.675,1.461-1.48,1.461c-0.805,0-1.469-0.655-1.48-1.461c-0.004-0.275-0.139-0.532-0.362-0.691
	c-0.272-0.193-0.434-0.505-0.434-0.836c0-0.565,0.46-1.026,1.026-1.026h2.501C43.816,53.463,44.276,53.924,44.276,54.489z
	 M45.905,31.633c1.061,0,1.961,0.827,2.049,1.883c0.027,0.329,0.24,0.613,0.547,0.732c1.156,0.448,2.034,1.329,2.485,2.419
	c0.011,0.029,0.022,0.056,0.035,0.083c0.196,0.503,0.302,1.049,0.302,1.615c0,0.476,0.386,0.862,0.862,0.862
	c0.476,0,0.862-0.385,0.862-0.862c0-0.417-0.044-0.827-0.127-1.227l10.75-0.984c-0.952,2.338-2.848,4.185-5.254,5.06
	c-1.974,0.719-4.081,0.773-5.932,0.151c-0.089-0.03-0.181-0.044-0.274-0.044h-0.025c-0.029,0-0.058,0.001-0.087,0.004
	c-0.002,0.001-5.993,0.606-5.993,0.606c-0.44,0.045-0.775,0.415-0.775,0.858v1.531c0,0.476,0.386,0.862,0.862,0.862
	c0.476,0,0.862-0.386,0.862-0.862v-0.752l4.24-0.429c-0.178,3.098-1.217,6.043-3.037,8.567c-0.086,0.12-0.14,0.259-0.157,0.405
	l-0.783,6.786c-0.198,1.65-1.762,3.044-3.416,3.044h-3.8c-1.654,0-3.218-1.394-3.416-3.041l-0.783-6.789
	c-0.017-0.146-0.071-0.285-0.157-0.405c-1.82-2.524-2.859-5.469-3.037-8.567l4.239,0.429v0.752c0,0.476,0.386,0.862,0.862,0.862
	c0.476,0,0.862-0.386,0.862-0.862v-1.531c0-0.443-0.335-0.813-0.775-0.857l-5.991-0.606c-0.031-0.003-0.06-0.004-0.09-0.004H31.79
	c-0.093,0-0.186,0.014-0.274,0.044c-1.851,0.621-3.958,0.567-5.933-0.151c-2.406-0.876-4.302-2.723-5.254-5.06l10.751,0.984
	c-0.083,0.4-0.127,0.811-0.127,1.227c0,0.476,0.386,0.862,0.862,0.862c0.476,0,0.862-0.385,0.862-0.862
	c0-0.568,0.107-1.114,0.303-1.618c0.012-0.025,0.023-0.051,0.033-0.077c0.45-1.091,1.329-1.974,2.486-2.422
	c0.308-0.12,0.52-0.403,0.548-0.732c0.089-1.056,0.989-1.883,2.049-1.883H45.905z M43.25,51.74H40.75
	c-1.516,0-2.749,1.234-2.749,2.749c0,0.743,0.304,1.452,0.829,1.966C39.055,58.002,40.398,59.2,42,59.2
	c1.602,0,2.946-1.198,3.17-2.746c0.526-0.514,0.83-1.222,0.83-1.966C45.999,52.974,44.766,51.74,43.25,51.74z M69,21.197
	c0-0.476-0.386-0.862-0.862-0.862c-0.476,0-0.862,0.386-0.862,0.862c0,2.164-1.761,3.926-3.926,3.926h-2.273
	c0.984-1.018,1.593-2.402,1.593-3.926c0-0.476-0.386-0.862-0.862-0.862c-0.476,0-0.862,0.386-0.862,0.862
	c0,2.164-1.761,3.926-3.926,3.926h-2.273c0.984-1.018,1.593-2.402,1.593-3.926c0-0.476-0.386-0.862-0.862-0.862
	c-0.476,0-0.862,0.386-0.862,0.862c0,2.164-1.761,3.926-3.926,3.926c-2.822,0-5.167,2.08-5.583,4.787h-6.217
	c-0.416-2.707-2.761-4.787-5.584-4.787c-2.164,0-3.925-1.762-3.925-3.926c0-0.476-0.386-0.862-0.862-0.862
	c-0.476,0-0.862,0.386-0.862,0.862c0,1.524,0.608,2.909,1.593,3.926h-2.273c-2.164,0-3.925-1.762-3.925-3.926
	c0-0.476-0.386-0.862-0.862-0.862c-0.476,0-0.862,0.386-0.862,0.862c0,1.524,0.608,2.909,1.593,3.926h-2.273
	c-2.165,0-3.926-1.762-3.926-3.926c0-0.476-0.386-0.862-0.862-0.862c-0.476,0-0.862,0.386-0.862,0.862
	c0,3.115,2.534,5.649,5.649,5.649h12.659c1.911,0,3.506,1.372,3.855,3.183c-1.352,0.349-2.432,1.438-2.751,2.815
	c-1.17,0.571-2.115,1.5-2.719,2.619l-12.509-1.145c-0.278-0.025-0.553,0.086-0.734,0.298c-0.181,0.213-0.249,0.5-0.18,0.772
	c0.874,3.447,3.388,6.231,6.726,7.445c1.967,0.716,4.057,0.871,5.992,0.459c0.201,3.331,1.306,6.5,3.228,9.236l0.758,6.572
	c0.301,2.516,2.602,4.563,5.127,4.563h3.8c2.526,0,4.826-2.047,5.128-4.567l0.757-6.568c1.923-2.736,3.027-5.905,3.229-9.236
	c1.935,0.412,4.024,0.256,5.992-0.459c3.337-1.215,5.852-3.998,6.726-7.445c0.069-0.272,0.002-0.559-0.18-0.772
	c-0.182-0.213-0.456-0.323-0.734-0.298l-12.509,1.145c-0.605-1.12-1.549-2.049-2.72-2.619c-0.318-1.377-1.399-2.466-2.751-2.815
	c0.348-1.811,1.943-3.183,3.854-3.183h12.659C66.466,26.846,69,24.311,69,21.197z"/>
</svg>
