<?xml version="1.0" encoding="utf-8"?>
<!-- Generator: Adobe Illustrator 17.0.0, SVG Export Plug-In . SVG Version: 6.00 Build 0)  -->
<!DOCTYPE svg PUBLIC "-//W3C//DTD SVG 1.1//EN" "http://www.w3.org/Graphics/SVG/1.1/DTD/svg11.dtd">
<svg version="1.1" id="Layer_1" xmlns="http://www.w3.org/2000/svg" xmlns:xlink="http://www.w3.org/1999/xlink" x="0px" y="0px"
	 width="30px" height="30px" viewBox="0 0 30 30" enable-background="new 0 0 30 30" xml:space="preserve">
<g>
	<path fill="#F45D47" d="M21.246,18.876c-0.784-0.774-1.763-0.774-2.542,0c-0.594,0.589-1.189,1.179-1.773,1.778
		c-0.16,0.165-0.295,0.2-0.489,0.09c-0.385-0.21-0.794-0.379-1.164-0.609c-1.723-1.084-3.166-2.477-4.445-4.045
		c-0.634-0.779-1.199-1.613-1.593-2.552c-0.08-0.19-0.065-0.315,0.09-0.469c0.594-0.575,1.174-1.164,1.758-1.753
		c0.814-0.819,0.814-1.778-0.005-2.602c-0.465-0.469-0.929-0.929-1.393-1.398C9.211,6.836,8.736,6.351,8.252,5.877
		C7.468,5.113,6.489,5.113,5.71,5.882C5.11,6.471,4.536,7.075,3.927,7.654C3.362,8.189,3.078,8.843,3.018,9.607
		c-0.095,1.244,0.21,2.417,0.639,3.561c0.879,2.367,2.217,4.47,3.84,6.398c2.193,2.607,4.809,4.67,7.871,6.158
		c1.379,0.669,2.807,1.184,4.36,1.269c1.069,0.06,1.998-0.21,2.742-1.044c0.509-0.569,1.084-1.089,1.623-1.633
		c0.799-0.809,0.804-1.788,0.01-2.587C23.154,20.774,22.2,19.825,21.246,18.876z"/>
	<path fill="#F45D47" d="M20.293,14.896l1.843-0.315c-0.29-1.693-1.089-3.226-2.302-4.445c-1.283-1.283-2.907-2.092-4.694-2.342
		l-0.26,1.853c1.383,0.195,2.642,0.819,3.636,1.813C19.454,12.399,20.068,13.588,20.293,14.896z"/>
	<path fill="#F45D47" d="M23.174,6.885C21.047,4.758,18.355,3.415,15.383,3l-0.26,1.853c2.567,0.36,4.894,1.523,6.732,3.356
		c1.743,1.743,2.887,3.945,3.301,6.368L27,14.262C26.515,11.455,25.192,8.908,23.174,6.885z"/>
</g>
</svg>
